<svg width="46" height="40" viewBox="0 0 46 40" fill="none" xmlns="http://www.w3.org/2000/svg">
<g id="Logo">
<path id="Vector" d="M1.67277 35.7655C1.1334 35.3117 1.04124 34.5292 1.4121 33.9298L5.22425 27.7681C7.47683 30.2029 10.8846 31.8841 14.5811 31.8841C17.3535 31.8841 19.0285 30.4348 19.0285 28.5217C19.0285 26.2029 16.7759 25.1014 13.5415 23.8841C8.57424 22.087 1.93202 19.942 1.93202 11.7681C1.93202 5.56522 6.72598 0 15.4475 0C20.2992 0 24.6311 1.56522 27.8078 4.4058L24.4378 9.81765C23.9393 10.6183 22.8341 10.7592 22.0517 10.2325C19.9521 8.81917 17.5286 8.17391 15.332 8.17391C12.7329 8.17391 11.4622 9.50725 11.4622 11.2464C11.4622 13.3333 13.657 14.3768 16.9492 15.5942C21.9164 17.3913 28.5009 19.8261 28.5009 27.6522C28.5009 35.0145 23.4182 40 14.6966 40C9.01575 40 4.81989 38.4134 1.67277 35.7655Z" fill="white"/>
<path id="Exclude" fill-rule="evenodd" clip-rule="evenodd" d="M1.41277 33.9298C1.04191 34.5292 1.13407 35.3117 1.67344 35.7655C2.77536 36.6926 4.00584 37.4896 5.38363 38.134V39.9868H13.8096C14.1014 39.9956 14.3973 40 14.6973 40C14.9571 40 15.2136 39.9956 15.4669 39.9868H45.2238V8.37223C45.2238 3.74838 41.4754 0 36.8516 0H15.4482H5.38363V3.59243C3.11854 5.75577 1.9327 8.68307 1.9327 11.7681C1.9327 15.5556 3.35883 18.0487 5.38363 19.8124V27.9364C5.33011 27.8807 5.27721 27.8246 5.22493 27.7681L1.41277 33.9298ZM5.38363 27.9364V38.134C7.73303 39.2327 10.5107 39.8876 13.8096 39.9868H15.4669C23.7171 39.7009 28.5016 34.7952 28.5016 27.6522C28.5016 19.8261 21.9171 17.3913 16.9499 15.5942C13.6577 14.3768 11.4628 13.3333 11.4628 11.2464C11.4628 9.50725 12.7335 8.17391 15.3327 8.17391C17.5293 8.17391 19.9528 8.81917 22.0524 10.2325C22.8348 10.7592 23.9399 10.6183 24.4385 9.81765L27.8085 4.4058C24.6318 1.56522 20.2999 0 15.4482 0C11.0643 0 7.67281 1.40607 5.38363 3.59243V19.8124C7.59988 21.743 10.5334 22.7998 13.099 23.7242C13.248 23.7779 13.3958 23.8311 13.5421 23.8841C16.7766 25.1014 19.0292 26.2029 19.0292 28.5217C19.0292 30.4348 17.3542 31.8841 14.5818 31.8841C10.971 31.8841 7.63585 30.28 5.38363 27.9364Z" fill="#1BA1FF"/>
</g>
</svg>
